<?xml version="1.0" standalone="no"?>
<!DOCTYPE svg PUBLIC "-//W3C//DTD SVG 20010904//EN"
 "http://www.w3.org/TR/2001/REC-SVG-20010904/DTD/svg10.dtd">
<svg version="1.0" xmlns="http://www.w3.org/2000/svg"
 width="512.000000pt" height="512.000000pt" viewBox="0 0 512.000000 512.000000"
 preserveAspectRatio="xMidYMid meet">

<g transform="translate(0.000000,512.000000) scale(0.100000,-0.100000)"
fill="blue" stroke="none">
<path d="M4740 4963 c-8 -3 -131 -121 -273 -262 -214 -212 -260 -253 -267
-239 -25 43 -107 133 -163 179 -77 63 -240 142 -332 163 -103 22 -2697 25
-2762 3 -105 -36 -186 -107 -232 -206 l-26 -56 -3 -965 c-1 -531 0 -975 3
-988 3 -12 20 -31 38 -42 30 -19 51 -20 340 -20 l307 0 0 -150 c0 -87 -4 -150
-9 -150 -6 0 -40 8 -78 17 -50 12 -110 17 -228 17 -140 -1 -172 -4 -257 -27
-187 -50 -335 -134 -476 -271 -523 -506 -383 -1380 271 -1700 271 -133 571
-145 858 -35 l76 29 53 -35 c111 -74 26 -70 1355 -70 1329 0 1237 -5 1387 71
141 71 271 233 313 390 18 67 32 372 21 449 -5 33 -16 57 -36 77 -28 28 -29
28 -159 28 l-131 0 0 1308 0 1307 381 380 c209 209 387 392 395 407 8 15 14
37 14 49 0 43 -328 358 -362 348 -2 0 -10 -3 -18 -6z m-3543 -246 c59 -30 117
-92 147 -156 21 -46 21 -49 24 -999 l2 -952 -307 2 -308 3 0 945 c0 905 1 947
19 994 32 83 113 156 206 187 47 16 163 3 217 -24z m2528 5 c166 -56 307 -156
390 -277 l39 -56 -256 -257 -256 -257 -106 -248 c-58 -137 -106 -259 -106
-272 0 -38 37 -75 75 -75 21 0 129 41 282 107 l248 106 113 111 112 111 0
-1273 0 -1272 -1010 0 c-997 0 -1010 0 -1030 -20 -19 -19 -20 -33 -20 -298 0
-316 -7 -362 -68 -452 -92 -134 -259 -198 -408 -155 -32 9 -74 26 -92 37 l-32
20 72 51 c304 213 478 595 439 960 -6 57 -16 119 -21 138 -6 19 -10 42 -10 51
0 17 48 18 842 20 802 3 843 4 846 21 10 49 38 47 -869 47 l-849 0 -38 77
c-106 219 -279 393 -488 494 l-84 41 0 1151 c0 792 -4 1165 -11 1192 -14 51
-52 117 -97 167 l-35 39 1179 -3 1179 -3 70 -23z m705 -727 l-415 -415 -137
137 c-76 76 -138 142 -138 147 0 5 186 193 413 417 l412 407 140 -139 140
-139 -415 -415z m-490 -455 c0 -3 -46 -25 -102 -49 l-101 -43 -69 69 -68 69
40 94 c23 52 44 98 47 103 5 8 253 -230 253 -243z m-2685 -1366 c387 -74 695
-390 771 -791 22 -116 15 -304 -16 -418 -85 -317 -327 -577 -635 -682 -360
-123 -762 -24 -1023 251 -116 122 -188 246 -238 411 -26 84 -28 102 -28 265 0
207 15 275 93 435 153 311 466 523 811 548 68 6 176 -2 265 -19z m1022 -1606
c-3 -7 -5 -2 -5 12 0 14 2 19 5 13 2 -7 2 -19 0 -25z m1296 -335 c-270 -2
-716 -2 -990 0 -274 1 -52 2 492 2 545 0 769 -1 498 -2z"/>
<path d="M2092 4357 c-6 -7 -12 -30 -14 -51 -3 -36 -6 -41 -43 -53 -168 -56
-225 -283 -102 -411 41 -44 88 -67 162 -82 113 -22 133 -30 164 -65 116 -133
4 -325 -173 -294 -72 13 -129 75 -140 153 -5 33 -13 47 -27 51 -46 15 -62 -37
-35 -113 28 -78 86 -134 169 -161 29 -10 37 -18 37 -37 0 -36 17 -64 39 -64
25 0 39 19 43 59 3 28 8 35 42 46 139 48 207 218 140 353 -44 89 -102 124
-257 153 -179 33 -215 251 -55 335 42 22 124 18 170 -8 42 -24 88 -90 88 -127
0 -51 39 -78 68 -49 16 16 15 34 -4 97 -24 83 -89 144 -186 175 -11 3 -18 15
-18 30 0 62 -39 98 -68 63z"/>
<path d="M1938 2859 c-21 -12 -23 -40 -6 -57 9 -9 157 -12 604 -12 326 0 599
3 608 6 22 9 20 51 -3 64 -27 14 -1179 13 -1203 -1z"/>
<path d="M3278 2859 c-21 -12 -23 -40 -6 -57 17 -17 469 -17 486 0 18 18 14
46 -7 58 -26 13 -450 13 -473 -1z"/>
<path d="M1930 2415 c-6 -8 -10 -22 -8 -32 3 -16 20 -18 200 -21 191 -2 197
-2 203 18 14 45 -5 50 -200 50 -147 0 -185 -3 -195 -15z"/>
<path d="M2440 2416 c-6 -8 -9 -24 -5 -36 6 -20 10 -20 666 -20 601 0 660 1
666 16 3 9 2 24 -4 33 -9 14 -75 16 -660 19 -560 2 -652 0 -663 -12z"/>
<path d="M1934 1986 c-3 -8 -4 -23 -2 -33 3 -17 36 -18 698 -18 l695 0 0 30 0
30 -693 3 c-597 2 -693 0 -698 -12z"/>
<path d="M3440 1984 c-10 -11 -11 -20 -3 -32 9 -15 32 -17 169 -17 l159 0 0
30 0 30 -156 3 c-134 2 -158 0 -169 -14z"/>
<path d="M855 2029 c-44 -11 -120 -40 -170 -64 -206 -104 -346 -265 -423 -488
-67 -195 -54 -434 33 -616 84 -175 224 -320 392 -405 135 -68 343 -100 492
-77 190 30 333 103 471 241 165 165 236 324 247 556 20 402 -248 760 -640 854
-111 27 -290 26 -402 -1z m420 -79 c168 -53 315 -160 415 -303 271 -384 124
-927 -305 -1127 -117 -55 -200 -73 -330 -72 -134 0 -232 24 -344 82 -151 79
-266 195 -340 345 -59 119 -75 189 -75 335 -1 150 14 214 81 350 40 81 60 109
142 190 121 121 240 186 402 220 77 16 275 5 354 -20z"/>
<path d="M1037 1599 c-10 -6 -17 -22 -17 -38 0 -22 -6 -30 -24 -35 -33 -8 -83
-52 -102 -88 -21 -40 -21 -126 0 -165 29 -56 90 -91 188 -107 72 -13 113 -105
72 -164 -57 -82 -171 -57 -200 44 -13 46 -36 63 -58 45 -21 -18 -20 -64 3
-109 23 -46 46 -67 93 -86 28 -12 37 -22 40 -43 3 -24 8 -28 33 -28 25 0 30 4
33 28 2 20 11 31 30 38 81 31 130 124 111 210 -19 83 -80 133 -176 146 -91 12
-137 88 -98 163 19 37 43 50 94 50 51 0 96 -36 108 -87 17 -75 80 -66 70 10
-8 57 -48 110 -101 136 -36 17 -46 26 -46 46 0 29 -28 47 -53 34z"/>
</g>
</svg>
